<svg xmlns="http://www.w3.org/2000/svg" width="850" height="460">
<rect width="100%" height="100%" fill="white"/>
<text x="16" y="30" font-family="Arial" font-size="20">Backend Developer (Intern) — skill demand %</text>
<text x="16" y="67" font-family="Arial" font-size="13">Java</text>
<rect x="230" y="53" width="155" height="16" fill="#4776c5"/>
<text x="391" y="66" font-family="Arial" font-size="12">31.03%</text>
<text x="16" y="93" font-family="Arial" font-size="13">Python</text>
<rect x="230" y="79" width="137" height="16" fill="#4776c5"/>
<text x="373" y="92" font-family="Arial" font-size="12">27.59%</text>
<text x="16" y="119" font-family="Arial" font-size="13">Redis</text>
<rect x="230" y="105" width="137" height="16" fill="#4776c5"/>
<text x="373" y="118" font-family="Arial" font-size="12">27.59%</text>
<text x="16" y="145" font-family="Arial" font-size="13">AWS</text>
<rect x="230" y="131" width="120" height="16" fill="#4776c5"/>
<text x="356" y="144" font-family="Arial" font-size="12">24.14%</text>
<text x="16" y="171" font-family="Arial" font-size="13">Flask</text>
<rect x="230" y="157" width="120" height="16" fill="#4776c5"/>
<text x="356" y="170" font-family="Arial" font-size="12">24.14%</text>
<text x="16" y="197" font-family="Arial" font-size="13">Git</text>
<rect x="230" y="183" width="120" height="16" fill="#4776c5"/>
<text x="356" y="196" font-family="Arial" font-size="12">24.14%</text>
<text x="16" y="223" font-family="Arial" font-size="13">Node.js</text>
<rect x="230" y="209" width="120" height="16" fill="#4776c5"/>
<text x="356" y="222" font-family="Arial" font-size="12">24.14%</text>
<text x="16" y="249" font-family="Arial" font-size="13">Docker</text>
<rect x="230" y="235" width="103" height="16" fill="#4776c5"/>
<text x="339" y="248" font-family="Arial" font-size="12">20.69%</text>
<text x="16" y="275" font-family="Arial" font-size="13">FastAPI</text>
<rect x="230" y="261" width="103" height="16" fill="#4776c5"/>
<text x="339" y="274" font-family="Arial" font-size="12">20.69%</text>
<text x="16" y="301" font-family="Arial" font-size="13">GraphQL</text>
<rect x="230" y="287" width="103" height="16" fill="#4776c5"/>
<text x="339" y="300" font-family="Arial" font-size="12">20.69%</text>
<text x="16" y="327" font-family="Arial" font-size="13">Kubernetes</text>
<rect x="230" y="313" width="103" height="16" fill="#4776c5"/>
<text x="339" y="326" font-family="Arial" font-size="12">20.69%</text>
<text x="16" y="353" font-family="Arial" font-size="13">REST API</text>
<rect x="230" y="339" width="103" height="16" fill="#4776c5"/>
<text x="339" y="352" font-family="Arial" font-size="12">20.69%</text>
<text x="16" y="379" font-family="Arial" font-size="13">CI/CD</text>
<rect x="230" y="365" width="86" height="16" fill="#4776c5"/>
<text x="322" y="378" font-family="Arial" font-size="12">17.24%</text>
<text x="16" y="405" font-family="Arial" font-size="13">JavaScript</text>
<rect x="230" y="391" width="86" height="16" fill="#4776c5"/>
<text x="322" y="404" font-family="Arial" font-size="12">17.24%</text>
<text x="16" y="431" font-family="Arial" font-size="13">PostgreSQL</text>
<rect x="230" y="417" width="86" height="16" fill="#4776c5"/>
<text x="322" y="430" font-family="Arial" font-size="12">17.24%</text>
</svg>